<?xml version="1.0" standalone="no"?>
<!DOCTYPE svg PUBLIC "-//W3C//DTD SVG 20010904//EN"
 "http://www.w3.org/TR/2001/REC-SVG-20010904/DTD/svg10.dtd">
<svg version="1.0" xmlns="http://www.w3.org/2000/svg"
 width="260.000000pt" height="260.000000pt" viewBox="0 0 260.000000 260.000000"
 preserveAspectRatio="xMidYMid meet">
<metadata>
Created by potrace 1.14, written by Peter Selinger 2001-2017
</metadata>
<g transform="translate(0.000000,260.000000) scale(0.100000,-0.100000)"
fill="#000000" stroke="none">
<path d="M1344 2400 c-68 -10 -116 -26 -195 -66 -92 -46 -130 -51 -173 -24
l-35 21 -16 -37 c-17 -42 -19 -66 -6 -110 7 -25 5 -33 -11 -43 -16 -10 -19
-19 -13 -49 3 -20 5 -50 5 -67 -9 -173 6 -263 59 -375 17 -36 31 -78 31 -94 0
-27 -1 -28 -23 -14 -32 21 -57 76 -57 128 0 33 -3 41 -11 33 -20 -20 -13 -88
12 -133 14 -24 40 -52 62 -64 27 -15 45 -36 62 -73 13 -29 45 -75 70 -102 l45
-48 -106 -37 c-59 -21 -126 -50 -149 -66 -101 -69 -204 -215 -301 -425 -20
-44 -46 -99 -56 -123 -43 -92 -2 -213 85 -253 47 -21 146 -26 179 -8 17 9 33
5 92 -24 39 -20 78 -38 86 -41 8 -2 -35 -5 -97 -5 -100 -1 -113 1 -122 18 -6
10 -7 22 -3 26 4 4 0 6 -8 3 -21 -7 -24 -33 -5 -52 15 -14 79 -16 649 -16 478
0 635 3 644 12 7 7 12 21 11 32 0 20 -1 20 -16 -2 -14 -21 -22 -22 -127 -21
-90 0 -105 3 -81 11 17 6 44 21 62 34 17 13 38 24 47 24 8 0 17 4 20 9 4 5 20
3 37 -6 21 -10 50 -14 94 -11 76 5 127 38 156 102 38 83 32 105 -113 396 -125
251 -201 326 -399 391 l-104 34 41 41 c23 23 56 71 73 108 22 46 38 66 50 66
10 0 34 17 54 39 44 49 54 100 32 166 -13 37 -14 54 -6 72 6 13 11 38 11 55 0
17 7 36 17 43 20 15 22 105 3 184 -10 42 -23 65 -58 99 l-44 45 41 -7 c36 -5
41 -4 41 13 0 22 -55 67 -93 77 -15 3 -41 1 -58 -5 -28 -10 -34 -9 -47 10 -19
27 -107 83 -152 97 -52 16 -129 21 -186 12z m194 -61 c23 -10 42 -22 42 -28 0
-5 -19 -1 -43 9 -23 10 -74 21 -112 24 -47 4 -62 3 -45 -3 14 -5 36 -9 50 -10
26 -1 136 -48 129 -55 -2 -3 -29 2 -59 10 -30 8 -77 14 -106 14 -28 0 -65 5
-81 11 -24 8 -43 6 -93 -11 -34 -12 -64 -19 -66 -17 -2 2 26 18 64 35 114 53
228 61 320 21z m-47 -86 c57 -22 32 -32 -61 -23 -41 4 -78 6 -81 4 -4 -2 -31
-6 -60 -8 -30 -2 -67 -7 -84 -11 -45 -12 -24 3 42 31 71 29 181 33 244 7z
m-21 -63 c18 -6 3 -8 -50 -9 -41 -1 -101 -7 -132 -15 -62 -14 -75 -12 -30 6
67 27 160 35 212 18z m-4 -199 c-18 -28 68 -42 161 -26 l41 6 27 -58 c15 -32
32 -67 37 -77 10 -18 7 -19 -83 -13 -114 8 -162 -2 -203 -42 -39 -38 -89 -43
-107 -10 -6 11 -31 30 -56 41 -39 17 -57 19 -144 12 -54 -3 -99 -4 -99 0 0 4
7 20 15 36 16 31 26 35 117 45 38 4 80 19 125 43 38 20 90 39 118 43 28 3 51
7 53 8 2 0 1 -3 -2 -8z m-429 -197 c-3 -3 -12 -4 -19 -1 -8 3 -5 6 6 6 11 1
17 -2 13 -5z m737 -2 c2 -4 -12 -6 -32 -4 -56 5 -62 10 -15 11 23 1 44 -3 47
-7z m-674 -58 c0 -16 1 -16 69 2 23 7 23 7 6 -20 -28 -43 -6 -116 36 -116 23
0 49 37 49 70 0 14 -7 36 -16 48 -15 21 -14 22 13 22 16 0 34 -5 41 -12 19
-19 14 -89 -8 -126 -23 -38 -54 -52 -115 -52 -35 0 -52 6 -76 28 -27 24 -33
37 -37 85 -3 37 0 62 8 72 16 20 30 19 30 -1z m610 -65 c0 -79 -26 -110 -97
-116 -91 -9 -153 44 -153 130 0 40 15 57 52 57 28 0 28 0 12 -25 -27 -42 -4
-115 37 -115 42 0 63 75 32 119 -16 24 -16 24 13 18 16 -4 39 -9 52 -13 17 -5
22 -2 22 11 0 14 3 15 15 5 10 -8 15 -31 15 -71z m160 2 c0 -47 -38 -121 -68
-132 -29 -11 -30 15 -2 51 11 14 20 33 20 43 0 30 29 89 40 82 5 -3 10 -23 10
-44z m-446 -63 c32 -86 118 -133 209 -113 18 4 49 9 69 11 l37 5 -15 -38 c-61
-145 -222 -245 -371 -230 -110 11 -239 100 -289 199 -25 50 -31 84 -13 72 6
-3 3 6 -7 22 l-18 29 27 -24 c14 -13 24 -27 22 -31 -2 -4 1 -7 8 -8 7 -1 35
-4 62 -8 103 -13 181 32 206 117 24 85 41 84 73 -3z m-119 -450 c60 -24 144
-19 205 12 44 23 50 16 20 -23 -25 -32 -78 -50 -144 -49 -62 1 -102 15 -138
50 -32 29 -37 48 -10 37 9 -4 40 -16 67 -27z m575 -94 c54 -32 60 -56 60 -236
l0 -164 28 -27 c80 -79 85 -92 57 -146 -14 -27 -69 -81 -83 -81 -14 0 1 96 19
122 25 35 25 57 1 35 -25 -23 -35 -21 -27 4 4 11 3 32 -1 47 -6 19 -10 -11
-14 -96 l-5 -124 -33 -29 -32 -29 -453 0 c-394 0 -455 2 -475 16 -41 29 -52
66 -54 186 -1 62 -3 89 -5 61 -4 -50 -14 -66 -28 -43 -3 6 -13 10 -21 10 -11
0 -7 -10 13 -37 21 -27 28 -48 28 -80 0 -27 -4 -43 -12 -43 -17 0 -93 97 -93
118 0 9 16 41 36 70 20 29 35 54 33 56 -6 6 -38 8 -80 7 -21 0 -52 -12 -73
-26 -35 -24 -86 -34 -86 -17 0 14 54 60 83 71 43 16 88 13 132 -9 22 -11 43
-20 47 -20 4 0 8 74 8 165 0 129 3 173 15 195 31 60 27 59 528 60 407 0 462
-2 487 -16z m250 -382 c19 -9 45 -33 58 -52 21 -32 22 -35 5 -41 -12 -4 -30 4
-54 26 -45 40 -99 59 -145 51 -43 -9 -44 1 -1 19 44 19 95 18 137 -3z m-1364
-91 c-28 -28 -38 -47 -39 -75 -1 -20 -4 -36 -6 -36 -15 0 -81 47 -81 57 0 46
63 93 125 93 l39 0 -38 -39z m1347 -1 c37 -42 34 -62 -13 -89 l-40 -22 0 38
c0 31 -7 46 -30 68 -41 39 -38 49 13 42 30 -4 50 -14 70 -37z m-840 -287 c-23
-2 -64 -2 -90 0 -26 2 -7 3 42 3 50 0 71 -1 48 -3z"/>
<path d="M1438 1518 c-5 -13 -63 -16 -95 -5 -32 12 -31 -18 2 -39 36 -23 93
-11 105 22 12 31 12 34 1 34 -5 0 -11 -5 -13 -12z"/>
<path d="M1274 1411 c-31 -32 106 -54 189 -30 67 18 37 31 -77 33 -59 0 -110
-1 -112 -3z"/>
<path d="M1385 760 c-3 -5 -2 -10 4 -10 5 0 13 5 16 10 3 6 2 10 -4 10 -5 0
-13 -4 -16 -10z"/>
<path d="M901 457 c-1 -38 4 -53 24 -72 l24 -25 446 0 446 0 24 25 c18 17 25
35 25 62 0 45 35 40 -305 45 -150 2 -246 -1 -275 -8 -25 -6 -54 -8 -64 -4 -11
4 -38 3 -60 -3 -49 -11 -73 -12 -188 -9 -73 2 -87 5 -91 20 -3 9 -5 -5 -6 -31z"/>
</g>
</svg>
